<svg id="visual" viewBox="0 0 960 540" width="960" height="540" xmlns="http://www.w3.org/2000/svg" xmlns:xlink="http://www.w3.org/1999/xlink" version="1.1"><rect x="0" y="0" width="960" height="540" fill="#ffffff"></rect><defs><linearGradient id="grad1_0" x1="43.8%" y1="0%" x2="100%" y2="100%"><stop offset="14.444444444444446%" stop-color="#ffffff" stop-opacity="1"></stop><stop offset="85.55555555555554%" stop-color="#ffffff" stop-opacity="1"></stop></linearGradient></defs><defs><linearGradient id="grad2_0" x1="0%" y1="0%" x2="56.3%" y2="100%"><stop offset="14.444444444444446%" stop-color="#ffffff" stop-opacity="1"></stop><stop offset="85.55555555555554%" stop-color="#ffffff" stop-opacity="1"></stop></linearGradient></defs><g transform="translate(960, 0)"><path d="M0 432C-53.4 418 -106.9 404.1 -159.6 385.3C-212.3 366.4 -264.3 342.7 -305.5 305.5C-346.7 268.2 -377.1 217.3 -396.3 164.2C-415.6 111 -423.8 55.5 -432 0L0 0Z" fill="#FEB04D"></path></g><g transform="translate(0, 540)"><path d="M0 -432C57.7 -422.5 115.4 -413 160 -386.2C204.6 -359.3 236.1 -315.1 277.9 -277.9C319.7 -240.7 371.7 -210.5 399.1 -165.3C426.5 -120.2 429.3 -60.1 432 0L0 0Z" fill="#FEB04D"></path></g></svg>